<?xml version="1.0" encoding="utf-8"?>
<!-- Generator: Adobe Illustrator 23.0.3, SVG Export Plug-In . SVG Version: 6.00 Build 0)  -->
<svg version="1.1" id="Layer_1" xmlns="http://www.w3.org/2000/svg" xmlns:xlink="http://www.w3.org/1999/xlink" x="0px" y="0px"
	 viewBox="0 0 360 360" style="enable-background:new 0 0 360 360;" xml:space="preserve">
<style type="text/css">
	.st0{fill:#56C3BE;}
	.st1{fill:#97D6D6;}
	.st2{fill:#F497C0;}
</style>
<g>
	
		<ellipse transform="matrix(0.9732 -0.2298 0.2298 0.9732 -66.9219 21.7345)" class="st0" cx="59.87" cy="298.25" rx="26.01" ry="26.01"/>
	<path class="st1" d="M156.79,256.92c-4.51-0.37-8.88,0-13.01,0.99c-4.87,1.17-9.99-0.3-13.53-3.84l-26.18-26.18
		c-3.52-3.52-4.99-8.6-3.86-13.44c0.95-4.1,1.3-8.43,0.93-12.89c-1.73-20.65-19-37.13-39.7-37.91
		c-25.09-0.95-45.45,20.38-42.87,45.78c1.98,19.51,17.87,35.19,37.4,36.95c5.6,0.51,11-0.11,16-1.63
		c5.11-1.56,10.67-0.19,14.45,3.59l23.62,23.62c3.76,3.76,5.15,9.28,3.62,14.37c-1.5,4.98-2.08,10.36-1.55,15.94
		c1.85,19.48,17.54,35.28,37.01,37.23c25.33,2.53,46.6-17.76,45.71-42.77C194.07,275.95,177.52,258.62,156.79,256.92z"/>
	<path class="st0" d="M284.61,238.18c-6.77-0.56-13.27,0.29-19.25,2.29c-5.55,1.86-11.67,0.62-15.81-3.52l-31.86-31.86
		c-4.01-4.01-5.33-9.89-3.74-15.34c1.68-5.78,2.3-12.02,1.63-18.48c-2.32-22.26-20.27-40.21-42.53-42.53
		c-6.47-0.68-12.7-0.05-18.48,1.63c-5.45,1.58-11.33,0.27-15.34-3.74l-18.85-18.85c-4.23-4.23-5.39-10.51-3.32-16.12
		c1.97-5.32,3.01-11.09,2.95-17.11c-0.28-25.85-22.79-47.76-48.64-47.38C44,27.56,22.19,50.89,24.3,78.8
		c1.76,23.3,20.61,42.2,43.9,44.04c5.51,0.44,10.83-0.07,15.84-1.36c5.34-1.38,11.02,0,14.92,3.9l20.01,20.01
		c4.13,4.13,5.37,10.24,3.51,15.78c-2.24,6.67-3.05,14-2.06,21.63c2.77,21.25,19.84,38.32,41.09,41.09
		c7.63,0.99,14.95,0.18,21.63-2.06c5.54-1.86,11.65-0.63,15.78,3.5l31.83,31.83c4.03,4.03,5.35,9.93,3.76,15.4
		c-1.49,5.11-2.14,10.58-1.81,16.25c1.4,23.68,20.42,43.08,44.07,44.88c29.45,2.25,53.83-22.15,51.54-51.6
		C326.51,258.92,307.79,240.1,284.61,238.18z"/>
	<path class="st1" d="M318.42,113.41c-5.29-2.71-8.73-8.02-8.73-13.96v-9.44c0-5.31,2.72-10.25,7.2-13.09
		c8.68-5.5,14.27-15.42,13.62-26.6c-0.86-14.82-13.1-26.92-27.93-27.62c-16.89-0.8-30.84,12.66-30.84,29.38
		c0,10.97,6.01,20.51,14.91,25.56c6.01,3.41,8.97,10.43,7.33,17.13l-0.76,3.1c-1.39,5.66-5.84,9.97-11.49,11.4
		c-23.22,5.88-40.25,27.28-39.37,52.53c0.93,26.61,22.32,48.64,48.89,50.29c30.38,1.89,55.61-22.19,55.61-52.16
		C346.87,139.65,335.31,122.07,318.42,113.41z"/>
	<circle class="st2" cx="194.84" cy="62.93" r="47.52"/>
</g>
</svg>
