<?xml version="1.0" encoding="utf-8"?>
<!-- Generator: Adobe Illustrator 23.0.3, SVG Export Plug-In . SVG Version: 6.00 Build 0)  -->
<svg version="1.1" id="Layer_1" xmlns="http://www.w3.org/2000/svg" xmlns:xlink="http://www.w3.org/1999/xlink" x="0px" y="0px"
	 viewBox="0 0 360 360" style="enable-background:new 0 0 360 360;" xml:space="preserve">
<style type="text/css">
	.st0{fill:#56C3BE;}
	.st1{fill:#97D6D6;}
	.st2{fill:#F497C0;}
</style>
<g>
	<ellipse transform="matrix(0.9732 -0.2298 0.2298 0.9732 -65.8488 22.1121)" class="st0" cx="62.03" cy="293.83" rx="25" ry="25"/>
	<path class="st1" d="M155.19,254.11c-4.34-0.36-8.54,0-12.5,0.95c-4.68,1.12-9.6-0.29-13.01-3.69l-25.16-25.16
		c-3.38-3.38-4.8-8.26-3.71-12.92c0.92-3.94,1.25-8.1,0.89-12.39c-1.66-19.84-18.26-35.68-38.16-36.44
		c-24.11-0.92-43.69,19.59-41.2,44.01c1.91,18.75,17.17,33.82,35.95,35.51c5.38,0.49,10.57-0.1,15.37-1.57
		c4.92-1.5,10.25-0.18,13.89,3.45l22.71,22.71c3.62,3.62,4.95,8.92,3.48,13.82c-1.44,4.79-2,9.96-1.49,15.33
		c1.78,18.73,16.86,33.91,35.58,35.78c24.35,2.43,44.79-17.07,43.93-41.11C191.02,272.4,175.11,255.74,155.19,254.11z"/>
	<path class="st0" d="M278.05,236.09c-6.51-0.54-12.76,0.28-18.5,2.2c-5.34,1.79-11.22,0.6-15.2-3.38l-30.62-30.62
		c-3.86-3.86-5.12-9.51-3.6-14.75c1.62-5.56,2.21-11.55,1.56-17.76c-2.23-21.39-19.49-38.65-40.88-40.88
		c-6.21-0.65-12.21-0.05-17.76,1.56c-5.24,1.52-10.89,0.26-14.75-3.6l-18.12-18.12c-4.06-4.06-5.18-10.11-3.19-15.5
		c1.89-5.12,2.9-10.66,2.83-16.45c-0.27-24.85-21.91-45.91-46.75-45.54c-26.3,0.39-47.26,22.82-45.23,49.64
		c1.69,22.39,19.81,40.56,42.2,42.33c5.29,0.42,10.41-0.06,15.23-1.31c5.14-1.32,10.59,0,14.34,3.75l19.23,19.23
		c3.97,3.97,5.16,9.84,3.37,15.17c-2.15,6.41-2.93,13.46-1.98,20.79c2.66,20.43,19.07,36.83,39.5,39.5
		c7.33,0.96,14.37,0.18,20.79-1.98c5.33-1.79,11.2-0.6,15.17,3.37l30.6,30.6c3.87,3.87,5.14,9.54,3.61,14.8
		c-1.43,4.92-2.06,10.17-1.74,15.62c1.35,22.76,19.63,41.41,42.36,43.14c28.31,2.16,51.74-21.29,49.54-49.6
		C318.32,256.02,300.32,237.94,278.05,236.09z"/>
	<path class="st1" d="M310.54,116.17c-5.08-2.6-8.39-7.71-8.39-13.42v-9.08c0-5.1,2.61-9.85,6.92-12.58
		c8.34-5.29,13.72-14.82,13.09-25.57c-0.83-14.25-12.59-25.87-26.85-26.55c-16.24-0.77-29.64,12.17-29.64,28.24
		c0,10.54,5.77,19.72,14.33,24.57c5.77,3.27,8.62,10.02,7.05,16.47l-0.73,2.98c-1.33,5.44-5.61,9.59-11.04,10.96
		c-22.32,5.65-38.69,26.23-37.84,50.49c0.89,25.58,21.45,46.75,46.99,48.34c29.2,1.82,53.45-21.33,53.45-50.14
		C337.89,141.39,326.78,124.49,310.54,116.17z"/>
</g>
<g>
	<g>
		<path class="st2" d="M191.76,112.85c-24.93,0-45.21-20.28-45.21-45.21s20.28-45.21,45.21-45.21s45.21,20.28,45.21,45.21
			S216.69,112.85,191.76,112.85z M191.76,33.02c-19.09,0-34.62,15.53-34.62,34.62s15.53,34.62,34.62,34.62s34.62-15.53,34.62-34.62
			S210.85,33.02,191.76,33.02z"/>
	</g>
</g>
</svg>
